# Alias OBJ Model File
# Exported from SketchUp, (c) 2000-2012 Trimble Navigation Limited
# File units = meters

mtllib obs.mtl

g Mesh1 Model

usemtl FrontColor
v 0.658813 0 -1.29858
vt -25.9375 51.125
vn 0 -1 -0
v 0 0 -0
vt 0 0
v 0 0 -1.29858
vt 0 51.125
f 1/1/1 2/2/1 3/3/1

v 0.658813 0 -0
vt -25.9375 0
f 2/2/1 1/1/1 4/4/1

usemtl Color_M07
vt 51.125 -10.1
vn 0.921071 0.389396 -1.95426e-18
v 0.452437 0.488156 -1.80478e-16
vt 7.06763e-15 10.7657
vt -5.50323e-17 -10.1
f 1/5/2 5/6/2 4/7/2

v 0.452437 0.488156 -0.162322
vt 6.39063 10.7657
f 5/6/2 1/5/2 6/8/2

v 0.452437 0.488156 -0.324644
vt 12.7813 10.7657
f 6/8/2 1/5/2 7/9/2

v 0.452437 0.488156 -0.486966
vt 19.1719 10.7657
f 7/9/2 1/5/2 8/10/2

v 0.452437 0.488156 -0.649288
vt 25.5625 10.7657
f 8/10/2 1/5/2 9/11/2

v 0.452437 0.488156 -0.811609
vt 31.9531 10.7657
f 9/11/2 1/5/2 10/12/2

v 0.452437 0.488156 -0.973931
vt 38.3438 10.7657
f 10/12/2 1/5/2 11/13/2

v 0.452437 0.488156 -1.13625
vt 44.7344 10.7657
f 11/13/2 1/5/2 12/14/2

v 0.452437 0.488156 -1.29858
vt 51.125 10.7657
f 12/14/2 1/5/2 13/15/2

vt -25.9375 2.83749e-14
vn -2.70682e-16 -5.5501e-16 -1
v 0.204787 0.488156 -1.29858
vt -8.0625 19.2188
vt -17.8125 19.2188
f 1/16/3 14/17/3 13/18/3

vt -1.38386e-14 2.83749e-14
f 14/17/3 1/16/3 3/19/3

vt -51.125 0
vn -0.922143 0.38685 -0
v 0.204787 0.488156 -1.13625
vt -44.7344 20.8414
vt -51.125 20.8414
f 3/20/4 15/21/4 14/22/4

v 0.204787 0.488156 -0.973931
vt -38.3438 20.8414
f 3/20/4 16/23/4 15/21/4

v 0.204787 0.488156 -0.811609
vt -31.9531 20.8414
f 3/20/4 17/24/4 16/23/4

v 0.204787 0.488156 -0.649288
vt -25.5625 20.8414
f 3/20/4 18/25/4 17/24/4

v 0.204787 0.488156 -0.486966
vt -19.1719 20.8414
f 3/20/4 19/26/4 18/25/4

v 0.204787 0.488156 -0.324644
vt -12.7813 20.8414
f 3/20/4 20/27/4 19/26/4

v 0.204787 0.488156 -0.162322
vt -6.39063 20.8414
f 3/20/4 21/28/4 20/27/4

f 2/2/4 21/28/4 3/20/4

v 0.204787 0.488156 -0
vt 0 20.8414
f 21/28/4 2/2/4 22/29/4

vn 9.02272e-17 1.85003e-16 1
vt 17.8125 19.2188
vt 8.0625 19.2188
f 2/2/5 5/30/5 22/31/5

vt 25.9375 -4.32957e-31
f 5/30/5 2/2/5 4/32/5

v 0.330597 0.488156 -6.84023e-17
vt 13.0156 19.2188
f 22/31/5 5/30/5 23/33/5

usemtl FrontColor
v 0.330597 0.488156 -1.29858
vt 13.0156 51.125
vn 0 1 -0
vt 13.0156 2.693e-15
vt 17.8125 7.10543e-15
f 24/34/6 23/35/6 5/36/6

vt 8.0625 51.125
f 14/37/6 23/35/6 24/34/6

vt 8.0625 44.7344
f 15/38/6 23/35/6 14/37/6

vt 8.0625 38.3438
f 16/39/6 23/35/6 15/38/6

vt 8.0625 31.9531
f 17/40/6 23/35/6 16/39/6

vt 8.0625 25.5625
f 18/41/6 23/35/6 17/40/6

vt 8.0625 19.1719
f 19/42/6 23/35/6 18/41/6

vt 8.0625 12.7813
f 20/43/6 23/35/6 19/42/6

vt 8.0625 6.39063
f 21/44/6 23/35/6 20/43/6

vt 8.0625 0
f 23/35/6 21/44/6 22/45/6

usemtl Color_A05
vt 0 19.5106
vn -0.999281 0.0379131 -0
v 0.210344 0.634603 -0.162322
vt -6.39063 25.2804
vt -6.39063 19.5106
f 22/46/7 25/47/7 21/48/7

v 0.210344 0.634603 -0
vt 0 25.2804
f 25/47/7 22/46/7 26/49/7

usemtl Color_M00
vn 4.63254e-16 -8.82803e-17 1
v 0.330597 0.634603 -4.51195e-17
vt 13.0156 24.9844
vt 8.28125 24.9844
f 22/31/8 27/50/8 26/51/8

f 27/50/8 22/31/8 23/33/8

usemtl Color_A05
vn 6.511e-16 -3.84058e-16 1
v 0.45085 0.634603 -9.02389e-17
vt 17.75 24.9844
f 23/33/9 28/52/9 27/50/9

f 28/52/9 23/33/9 5/30/9

usemtl Color_M00
vt 7.10618e-15 19.0245
vn 0.999941 0.0108395 4.23584e-20
v 0.45085 0.634603 -0.162322
vt 6.39063 24.7905
vt 3.55347e-15 24.7905
f 5/53/10 29/54/10 28/55/10

vt 6.39063 19.0245
f 29/54/10 5/53/10 6/56/10

usemtl FrontColor
vt 17.8125 51.125
vt 17.8125 6.39063
f 13/57/6 5/36/6 6/58/6

f 24/34/6 5/36/6 13/57/6

usemtl Color_M07
vt -13.0156 19.2188
f 13/18/3 14/17/3 24/59/3

usemtl Color_A05
v 0.210344 0.634603 -1.29858
vt -8.28125 24.9844
vn -2.21582e-15 6.58223e-16 -1
vt -13.0156 19.2187
vt -8.0625 19.2187
f 30/60/11 24/61/11 14/62/11

v 0.330597 0.634603 -1.29858
vt -13.0156 24.9844
f 24/61/11 30/60/11 31/63/11

usemtl Color_M07
v 0.2159 0.78105 -1.29858
vt -8.5 30.75
vn -7.73028e-16 1.24285e-15 -1
f 32/64/12 31/63/12 30/60/12

v 0.45085 0.634603 -1.29858
vt -17.75 24.9844
f 31/63/12 32/64/12 33/65/12

v 0.449263 0.78105 -1.29858
vt -17.6875 30.75
f 33/65/12 32/64/12 34/66/12

usemtl FrontColor
vt 8.5 51.125
v 0.449263 0.78105 -0
vt 17.6875 0
vt 17.6875 51.125
f 32/67/6 35/68/6 34/69/6

v 0.2159 0.78105 -0
vt 8.5 0
f 35/68/6 32/67/6 36/70/6

usemtl Color_M07
vt -51.125 31.0502
vt 0 31.0502
f 32/71/7 26/49/7 36/72/7

f 26/49/7 32/71/7 25/47/7

v 0.210344 0.634603 -0.324644
vt -12.7813 25.2804
f 25/47/7 32/71/7 37/73/7

v 0.210344 0.634603 -0.486966
vt -19.1719 25.2804
f 37/73/7 32/71/7 38/74/7

v 0.210344 0.634603 -0.649288
vt -25.5625 25.2804
f 38/74/7 32/71/7 39/75/7

v 0.210344 0.634603 -0.811609
vt -31.9531 25.2804
f 39/75/7 32/71/7 40/76/7

v 0.210344 0.634603 -0.973931
vt -38.3438 25.2804
f 40/76/7 32/71/7 41/77/7

v 0.210344 0.634603 -1.13625
vt -44.7344 25.2804
f 41/77/7 32/71/7 42/78/7

vt -51.125 25.2804
f 42/78/7 32/71/7 30/79/7

usemtl FrontColor
vt 8.28125 44.7344
vt 13.0156 1.77636e-15
vt 8.28125 51.125
f 42/80/6 27/81/6 30/82/6

vt 8.28125 38.3438
f 41/83/6 27/81/6 42/80/6

vt 8.28125 31.9531
f 40/84/6 27/81/6 41/83/6

vt 8.28125 25.5625
f 39/85/6 27/81/6 40/84/6

vt 8.28125 19.1719
f 38/86/6 27/81/6 39/85/6

vt 8.28125 12.7813
f 37/87/6 27/81/6 38/86/6

vt 8.28125 6.39063
f 25/88/6 27/81/6 37/87/6

vt 8.28125 0
f 27/81/6 25/88/6 26/89/6

usemtl Color_M07
vn 1.93257e-16 -3.10713e-16 1
vt 17.6875 30.75
f 27/50/13 35/90/13 26/51/13

f 35/90/13 27/50/13 28/52/13

usemtl FrontColor
vt 17.75 3.55271e-15
f 31/34/6 27/81/6 28/91/6

f 30/82/6 27/81/6 31/34/6

vt 17.75 51.125
f 31/34/6 28/91/6 33/92/6

vt 17.75 6.39063
f 33/92/6 28/91/6 29/93/6

usemtl Color_M07
vt 51.125 30.5565
vn 0.999941 0.0108395 -2.33662e-20
vt 3.5523e-15 24.7905
f 34/94/14 28/95/14 29/54/14

vt -4.13314e-19 30.5565
f 28/95/14 34/94/14 35/96/14

v 0.45085 0.634603 -0.324644
vt 12.7813 24.7905
f 34/94/14 29/54/14 43/97/14

usemtl FrontColor
vt 17.75 12.7813
f 33/92/6 29/93/6 43/98/6

usemtl Color_A05
vn 0.999941 0.0108395 9.76085e-20
f 6/56/15 43/97/15 29/54/15

vt 12.7813 19.0245
f 43/97/15 6/56/15 7/99/15

usemtl FrontColor
vt 17.8125 12.7813
f 13/57/6 6/58/6 7/100/6

vt 17.8125 19.1719
f 13/57/6 7/100/6 8/101/6

usemtl Color_M00
v 0.45085 0.634603 -0.486966
vt 19.1719 24.7905
vn 0.999941 0.0108395 -5.52501e-20
vt 19.1719 19.0245
f 44/102/16 7/99/16 8/103/16

f 7/99/16 44/102/16 43/97/16

usemtl Color_M07
f 34/94/14 43/97/14 44/102/14

usemtl FrontColor
vt 17.75 19.1719
f 33/92/6 43/98/6 44/104/6

v 0.45085 0.634603 -0.649288
vt 17.75 25.5625
f 33/92/6 44/104/6 45/105/6

usemtl Color_M07
vt 25.5625 24.7905
f 34/94/14 44/102/14 45/106/14

usemtl Color_A05
vn 0.999941 0.0108395 -0
vt 25.5625 19.0245
f 44/102/17 9/107/17 45/106/17

f 9/107/17 44/102/17 8/103/17

usemtl FrontColor
vt 17.8125 25.5625
f 13/57/6 8/101/6 9/108/6

vt 17.8125 31.9531
f 13/57/6 9/108/6 10/109/6

usemtl Color_M00
vt 31.9531 19.0245
f 10/110/17 45/106/17 9/107/17

v 0.45085 0.634603 -0.811609
vt 31.9531 24.7905
f 45/106/17 10/110/17 46/111/17

usemtl Color_A05
vt 38.3438 19.0245
f 11/112/17 46/111/17 10/110/17

v 0.45085 0.634603 -0.973931
vt 38.3438 24.7905
f 46/111/17 11/112/17 47/113/17

usemtl Color_M00
vt 44.7344 19.0245
f 12/114/17 47/113/17 11/112/17

v 0.45085 0.634603 -1.13625
vt 44.7344 24.7905
f 47/113/17 12/114/17 48/115/17

usemtl Color_A05
vt 51.125 19.0245
vn 0.999941 0.0108395 -2.21e-19
f 13/116/18 48/115/18 12/114/18

vt 51.125 24.7905
f 48/115/18 13/116/18 33/117/18

usemtl Color_M00
vt -17.8125 19.2187
vn -1.49091e-15 1.2243e-15 -1
f 13/118/19 31/63/19 33/65/19

f 31/63/19 13/118/19 24/61/19

usemtl Color_M07
f 34/94/14 48/115/14 33/117/14

f 34/94/14 47/113/14 48/115/14

f 34/94/14 46/111/14 47/113/14

f 34/94/14 45/106/14 46/111/14

usemtl FrontColor
vt 17.75 31.9531
f 33/92/6 45/105/6 46/119/6

vt 17.75 38.3438
f 33/92/6 46/119/6 47/120/6

vt 17.75 44.7344
f 33/92/6 47/120/6 48/121/6

vt 17.8125 38.3438
vt 17.8125 44.7344
f 13/57/6 11/122/6 12/123/6

f 13/57/6 10/109/6 11/122/6

usemtl Color_M07
vt 8.5 30.75
f 26/51/13 35/90/13 36/124/13

usemtl Color_M00
f 37/73/7 21/48/7 25/47/7

vt -12.7813 19.5106
f 21/48/7 37/73/7 20/125/7

usemtl Color_A05
f 38/74/7 20/125/7 37/73/7

vt -19.1719 19.5106
f 20/125/7 38/74/7 19/126/7

usemtl Color_M00
f 39/75/7 19/126/7 38/74/7

vt -25.5625 19.5106
f 19/126/7 39/75/7 18/127/7

usemtl Color_A05
f 40/76/7 18/127/7 39/75/7

vt -31.9531 19.5106
f 18/127/7 40/76/7 17/128/7

usemtl Color_M00
f 41/77/7 17/128/7 40/76/7

vt -38.3438 19.5106
f 17/128/7 41/77/7 16/129/7

usemtl Color_A05
f 42/78/7 16/129/7 41/77/7

vt -44.7344 19.5106
f 16/129/7 42/78/7 15/130/7

usemtl Color_M00
f 30/79/7 15/130/7 42/78/7

vt -51.125 19.5106
f 15/130/7 30/79/7 14/131/7

